<svg width="24" height="24" viewBox="0 0 24 24" fill="none" xmlns="http://www.w3.org/2000/svg">
<path d="M10.492 10.8119L20.8116 0.492579C21.4681 -0.164193 22.5324 -0.164193 23.1885 0.49258C23.8447 1.14877 23.8447 2.21304 23.1885 2.86917L14.0572 12.0002L23.1882 21.1309C23.8444 21.7873 23.8444 22.8515 23.1882 23.5077C22.5321 24.1641 21.4678 24.1641 20.8113 23.5077L10.4917 13.1882C10.1636 12.8599 9.99977 12.4302 9.99977 12.0002C9.99977 11.57 10.1639 11.14 10.492 10.8119Z" fill="#40546F"/>
<path d="M13.1887 13.1881L2.86905 23.5074C2.2126 24.1642 1.14827 24.1642 0.49214 23.5074C-0.164046 22.8512 -0.164047 21.787 0.49214 21.1308L9.6234 11.9998L0.492398 2.86914C-0.163789 2.21269 -0.163789 1.14853 0.492397 0.49234C1.14858 -0.164113 2.21286 -0.164113 2.86931 0.492339L13.1889 10.8118C13.517 11.14 13.6809 11.5698 13.6809 11.9998C13.6809 12.43 13.5167 12.86 13.1887 13.1881Z" fill="#40546F"/>
</svg>
